{
  "source": "C:\\Users\\Peter\\Desktop\\stuff\\MIUN\\quantitative_research\\video_compression\\videos\\BVI-HD\\BVI-HD_CDVL_videos\\ORIG\\Bookcase_1920x1080_60fps.mp4",
  "output": "C:\\Users\\Peter\\Desktop\\stuff\\MIUN\\quantitative_research\\video_compression\\compressed_videos\\BVI-HD\\av1\\1\\Bookcase_1920x1080_60fps_av1.mkv",
  "codec": "av1",
  "ok": "Input #0, mov,mp4,m4a,3gp,3g2,mj2, from 'C:\\Users\\Peter\\Desktop\\stuff\\MIUN\\quantitative_research\\video_compression\\videos\\BVI-HD\\BVI-HD_CDVL_videos\\ORIG\\Bookcase_1920x1080_60fps.mp4':\n  Metadata:\n    major_brand     : isom\n    minor_version   : 512\n    compatible_brands: isomiso2avc1mp41\n    encoder         : Lavf54.28.101\n  Duration: 00:00:05.00, start: 0.000000, bitrate: 336321 kb/s\n  Stream #0:0[0x1](und): Video: h264 (High 4:4:4 Predictive) (avc1 / 0x31637661), yuv420p(progressive), 1920x1080, 336316 kb/s, 60 fps, 60 tbr, 60 tbn (default)\n    Metadata:\n      handler_name    : VideoHandler\n      vendor_id       : [0][0][0][0]\n[out#0/matroska @ 00000203382dad80] Codec AVOption b:a (set bitrate (in bits/s)) has not been used for any stream. The most likely reason is either wrong type (e.g. a video option with no video streams) or that it is a private option of some decoder which was not actually used for any stream.\nStream mapping:\n  Stream #0:0 -> #0:0 (h264 (native) -> av1 (libsvtav1))\nPress [q] to stop, [?] for help\nSvt[info]: -------------------------------------------\nSvt[info]: SVT [version]:\tSVT-AV1 Encoder Lib v3.1.0-19-g6ecfe8ec\nSvt[info]: SVT [build]  :\tGCC 15.2.0\t 64 bit\nSvt[info]: LIB Build date: Aug 17 2025 11:37:13\nSvt[info]: -------------------------------------------\nSvt[info]: Level of Parallelism: 5\nSvt[info]: Number of PPCS 93\nSvt[info]: [asm level on system : up to avx2]\nSvt[info]: [asm level selected : up to avx2]\nSvt[info]: -------------------------------------------\nSvt[info]: SVT [config]: main profile\ttier (auto)\tlevel (auto)\nSvt[info]: SVT [config]: width / height / fps numerator / fps denominator \t\t: 1920 / 1080 / 60 / 1\nSvt[info]: SVT [config]: bit-depth / color format \t\t\t\t\t: 8 / YUV420\nSvt[info]: SVT [config]: preset / tune / pred struct \t\t\t\t\t: 4 / PSNR / random access\nSvt[info]: SVT [config]: gop size / mini-gop size / key-frame type \t\t\t: 321 / 16 / key frame\nSvt[info]: SVT [config]: BRC mode / target bitrate (kbps)\t\t\t\t: VBR / 1000 \nSvt[info]: SVT [config]: AQ mode / Variance Boost \t\t\t\t\t: 2 / 0\nSvt[info]: SVT [config]: sharpness / luminance-based QP bias \t\t\t\t: 0 / 0\nSvt[info]: SVT [config]: QP scale compress strength \t\t\t\t\t: 0\nSvt[info]: -------------------------------------------\nOutput #0, matroska, to 'C:\\Users\\Peter\\Desktop\\stuff\\MIUN\\quantitative_research\\video_compression\\compressed_videos\\BVI-HD\\av1\\1\\Bookcase_1920x1080_60fps_av1.mkv':\n  Metadata:\n    major_brand     : isom\n    minor_version   : 512\n    compatible_brands: isomiso2avc1mp41\n    encoder         : Lavf62.3.100\n  Stream #0:0(und): Video: av1 (AV01 / 0x31305641), yuv420p(tv, progressive), 1920x1080, q=2-31, 1000 kb/s, 60 fps, 1k tbn (default)\n    Metadata:\n      encoder         : Lavc62.11.100 libsvtav1\n      handler_name    : VideoHandler\n      vendor_id       : [0][0][0][0]\n    Side data:\n      cpb: bitrate max/min/avg: 0/0/1000000 buffer size: 1000000 vbv_delay: N/A\nframe=    0 fps=0.0 q=0.0 size=       0KiB time=N/A bitrate=N/A speed=N/A elapsed=0:00:01.03    \nframe=    0 fps=0.0 q=0.0 size=       0KiB time=N/A bitrate=N/A speed=N/A elapsed=0:00:01.69    \nframe=    0 fps=0.0 q=0.0 size=       0KiB time=N/A bitrate=N/A speed=N/A elapsed=0:00:02.22    \nframe=    0 fps=0.0 q=0.0 size=       0KiB time=N/A bitrate=N/A speed=N/A elapsed=0:00:02.81    \nframe=    0 fps=0.0 q=0.0 size=       0KiB time=N/A bitrate=N/A speed=N/A elapsed=0:00:03.40    \nframe=    1 fps=0.3 q=27.0 size=       1KiB time=00:00:00.00 bitrate=N/A speed=   0x elapsed=0:00:03.93    \nframe=    3 fps=0.7 q=50.0 size=       1KiB time=00:00:00.01 bitrate= 341.8kbits/s speed=0.00375x elapsed=0:00:04.44    \nframe=   13 fps=2.6 q=49.0 size=       1KiB time=00:00:00.16 bitrate=  34.2kbits/s speed=0.0329x elapsed=0:00:05.06    \nframe=   17 fps=3.0 q=39.0 size=       1KiB time=00:00:00.26 bitrate=  21.4kbits/s speed=0.0471x elapsed=0:00:05.66    \nframe=   24 fps=3.9 q=43.0 size=       1KiB time=00:00:00.38 bitrate=  14.9kbits/s speed=0.062x elapsed=0:00:06.18    \nframe=   31 fps=4.6 q=39.0 size=       1KiB time=00:00:00.48 bitrate=  11.8kbits/s speed=0.0719x elapsed=0:00:06.71    \nframe=   38 fps=5.2 q=37.0 size=       1KiB time=00:00:00.61 bitrate=   9.2kbits/s speed=0.0851x elapsed=0:00:07.24    \nframe=   43 fps=5.5 q=36.0 size=       1KiB time=00:00:00.68 bitrate=   8.3kbits/s speed=0.0878x elapsed=0:00:07.77    \nframe=   47 fps=5.6 q=35.0 size=       1KiB time=00:00:00.76 bitrate=   7.4kbits/s speed=0.0916x elapsed=0:00:08.36    \nframe=   54 fps=6.1 q=35.0 size=       1KiB time=00:00:00.88 bitrate=   6.4kbits/s speed=0.0994x elapsed=0:00:08.88    \nframe=   59 fps=6.3 q=37.0 size=       1KiB time=00:00:00.96 bitrate=   5.9kbits/s speed=0.103x elapsed=0:00:09.41    \nframe=   65 fps=6.5 q=31.0 size=       1KiB time=00:00:01.06 bitrate=   5.3kbits/s speed=0.107x elapsed=0:00:09.94    \nframe=   71 fps=6.8 q=35.0 size=       1KiB time=00:00:01.16 bitrate=   4.9kbits/s speed=0.111x elapsed=0:00:10.50    \nframe=   77 fps=7.0 q=35.0 size=       1KiB time=00:00:01.26 bitrate=   4.5kbits/s speed=0.115x elapsed=0:00:11.02    \nframe=   84 fps=7.3 q=37.0 size=       1KiB time=00:00:01.38 bitrate=   4.1kbits/s speed=0.12x elapsed=0:00:11.55    \nframe=   90 fps=7.5 q=39.0 size=       1KiB time=00:00:01.48 bitrate=   3.8kbits/s speed=0.123x elapsed=0:00:12.07    \nframe=   97 fps=7.7 q=33.0 size=       1KiB time=00:00:01.60 bitrate=   3.6kbits/s speed=0.127x elapsed=0:00:12.60    \nframe=  105 fps=8.0 q=37.0 size=       1KiB time=00:00:01.71 bitrate=   3.3kbits/s speed=0.131x elapsed=0:00:13.12    \nframe=  114 fps=8.3 q=40.0 size=       1KiB time=00:00:01.86 bitrate=   3.1kbits/s speed=0.136x elapsed=0:00:13.71    \nframe=  122 fps=8.5 q=40.0 size=       1KiB time=00:00:02.00 bitrate=   2.8kbits/s speed=0.14x elapsed=0:00:14.30    \nframe=  128 fps=8.6 q=39.0 size=       1KiB time=00:00:02.11 bitrate=   2.7kbits/s speed=0.142x elapsed=0:00:14.90    \nframe=  136 fps=8.8 q=41.0 size=       1KiB time=00:00:02.25 bitrate=   2.5kbits/s speed=0.146x elapsed=0:00:15.41    \nframe=  145 fps=9.0 q=32.0 size=       1KiB time=00:00:02.36 bitrate=   2.4kbits/s speed=0.148x elapsed=0:00:16.02    \nframe=  153 fps=9.2 q=38.0 size=       1KiB time=00:00:02.53 bitrate=   2.2kbits/s speed=0.153x elapsed=0:00:16.60    \nframe=  160 fps=9.3 q=44.0 size=       1KiB time=00:00:02.65 bitrate=   2.1kbits/s speed=0.155x elapsed=0:00:17.12    \nframe=  168 fps=9.5 q=46.0 size=       1KiB time=00:00:02.78 bitrate=   2.0kbits/s speed=0.157x elapsed=0:00:17.67    \nframe=  175 fps=9.6 q=45.0 size=       1KiB time=00:00:02.90 bitrate=   2.0kbits/s speed=0.159x elapsed=0:00:18.18    \nframe=  185 fps=9.9 q=42.0 size=       1KiB time=00:00:03.05 bitrate=   1.9kbits/s speed=0.163x elapsed=0:00:18.71    \nframe=  192 fps=9.9 q=48.0 size=       1KiB time=00:00:03.16 bitrate=   1.8kbits/s speed=0.164x elapsed=0:00:19.30    \nframe=  205 fps= 10 q=50.0 size=       1KiB time=00:00:03.35 bitrate=   1.7kbits/s speed=0.169x elapsed=0:00:19.86    \nframe=  215 fps= 11 q=49.0 size=       1KiB time=00:00:03.56 bitrate=   1.6kbits/s speed=0.175x elapsed=0:00:20.39    \nframe=  225 fps= 11 q=37.0 size=       1KiB time=00:00:03.73 bitrate=   1.5kbits/s speed=0.178x elapsed=0:00:20.94    \nframe=  237 fps= 11 q=47.0 size=       1KiB time=00:00:03.93 bitrate=   1.4kbits/s speed=0.183x elapsed=0:00:21.46    \nframe=  249 fps= 11 q=44.0 size=       1KiB time=00:00:04.13 bitrate=   1.4kbits/s speed=0.188x elapsed=0:00:21.98    \nframe=  261 fps= 12 q=49.0 size=       1KiB time=00:00:04.33 bitrate=   1.3kbits/s speed=0.192x elapsed=0:00:22.51    \nframe=  273 fps= 12 q=41.0 size=       1KiB time=00:00:04.53 bitrate=   1.3kbits/s speed=0.197x elapsed=0:00:23.02    \n[out#0/matroska @ 00000203382dad80] video:566KiB audio:0KiB subtitle:0KiB other streams:0KiB global headers:0KiB muxing overhead: 0.363221%\nframe=  300 fps= 13 q=56.0 Lsize=     569KiB time=00:00:04.98 bitrate= 934.6kbits/s speed=0.212x elapsed=0:00:23.50    \n",
  "seconds": 23.95466113090515,
  "probe_out": {}
}